<?xml version="1.0" encoding="UTF-8"?>
<svg id="BCID" xmlns="http://www.w3.org/2000/svg" viewBox="0 0 554.31 523.05">
  <defs>
    <style>
      .cls-1 {
        fill: #7b8cac;
      }

      .cls-2 {
        fill: #fff;
      }

      .cls-3 {
        fill: #e3a82b;
      }

      .cls-4 {
        fill: none;
      }
    </style>
  </defs>
  <g>
    <g>
      <path class="cls-2" d="M150.25,303.26c0-5.51-.39-6.97-4.11-7.27l-2.59-.18c-.42-.33-.3-1.83,.08-1.86,4.46-.4,10.08-.6,17.77-.6,5.21,0,10.16,.37,13.88,2.08,3.55,1.56,6.28,4.54,6.28,9.31,0,5.36-3.47,8.12-8.43,10.2,0,.75,.66,.97,1.57,1.12,4.46,.75,11.07,4.47,11.07,12.43,0,8.64-7.11,14.45-21.98,14.45-2.4,0-6.44-.23-9.92-.23s-6.45,.15-9.5,.23c-.5-.23-.66-1.42-.17-1.86l1.49-.22c4.38-.67,4.54-1.49,4.54-9.31v-28.29Zm6.78,9.9c0,2.09,.08,2.24,4.3,2.09,8.43-.3,12.97-2.53,12.97-9.53s-6.03-10.05-12.31-10.05c-1.82,0-3.06,.15-3.8,.45-.83,.22-1.16,.6-1.16,1.94v15.11Zm0,17.27c0,2.68,.17,6.48,1.73,8.11,1.57,1.71,4.05,2.09,6.53,2.09,7.35,0,12.97-2.98,12.97-10.42,0-5.88-3.31-12.73-16.44-12.73-4.46,0-4.79,.45-4.79,1.94v11.02Z"/>
      <path class="cls-2" d="M243.22,310.58c0-6.74-.14-7.82-4.31-8.14l-1.76-.13c-.42-.25-.28-1.4,.14-1.59,3.53,.13,5.93,.19,8.89,.19s5.22-.06,8.75-.19c.42,.19,.56,1.34,.14,1.59l-1.76,.13c-4.16,.32-4.31,1.4-4.31,8.14v22.64c0,6.74,.14,7.63,4.31,8.08l1.76,.19c.42,.25,.28,1.4-.14,1.59-3.53-.13-5.93-.19-8.75-.19-2.96,0-5.36,.06-8.89,.19-.42-.19-.56-1.21-.14-1.59l1.76-.19c4.16-.45,4.31-1.34,4.31-8.08v-22.64Z"/>
      <path class="cls-2" d="M282.38,333.35c0,6.68,.13,7.63,3.97,7.95l2.12,.19c.4,.25,.26,1.4-.13,1.59-3.77-.13-6.02-.19-8.66-.19s-4.96,.06-9.19,.19c-.4-.19-.53-1.27,0-1.59l2.38-.19c3.77-.32,4.1-1.27,4.1-7.95v-28.43c0-1.97,0-2.03-1.98-2.03h-3.64c-2.84,0-6.48,.12-8.13,1.59-1.59,1.4-2.25,2.8-2.98,4.39-.53,.38-1.45,.06-1.72-.44,1.06-2.86,2.05-6.93,2.51-9.48,.2-.13,1.06-.19,1.26,0,.4,2.03,2.58,1.97,5.62,1.97h26.78c3.57,0,4.17-.13,5.16-1.78,.33-.13,1.06-.06,1.19,.19-.73,2.61-1.19,7.76-.99,9.67-.26,.51-1.39,.51-1.72,.13-.2-1.59-.66-3.94-1.65-4.64-1.52-1.08-4.03-1.59-7.67-1.59h-4.7c-1.98,0-1.92,.06-1.92,2.16v28.3Z"/>
      <path class="cls-2" d="M310.73,310.58c0-6.74-.14-7.82-4.3-8.14l-1.76-.13c-.42-.25-.28-1.4,.14-1.59,3.53,.13,5.93,.19,8.89,.19s5.22-.06,8.75-.19c.42,.19,.56,1.34,.14,1.59l-1.77,.13c-4.16,.32-4.31,1.4-4.31,8.14v22.64c0,6.74,.14,7.63,4.31,8.08l1.77,.19c.42,.25,.28,1.4-.14,1.59-3.53-.13-5.93-.19-8.75-.19-2.97,0-5.37,.06-8.89,.19-.42-.19-.56-1.21-.14-1.59l1.76-.19c4.16-.45,4.3-1.34,4.3-8.08v-22.64Z"/>
      <path class="cls-2" d="M342.36,343.73c-6.3,0-10.28-1.65-11.7-2.35-.9-1.4-1.88-5.92-2.03-8.91,.37-.45,1.5-.57,1.8-.19,1.12,3.24,4.2,9.47,12.91,9.47,6.3,0,9.38-3.5,9.38-7.31,0-2.8-.67-5.91-6.15-8.9l-7.13-3.94c-3.75-2.1-8.11-5.72-8.11-10.94,0-6.04,5.55-10.94,15.31-10.94,2.33,0,5.03,.38,6.98,.83,.98,.25,2.03,.38,2.63,.38,.68,1.53,1.35,5.09,1.35,7.76-.3,.38-1.5,.57-1.88,.19-.97-3.05-3-7.19-10.21-7.19s-8.93,4.13-8.93,7.06c0,3.69,3.6,6.36,6.38,7.82l6,3.18c4.73,2.48,9.38,6.17,9.38,12.21,0,7-6.23,11.77-15.98,11.77Z"/>
      <path class="cls-2" d="M380.13,322.35c-3.28,0-3.42,.13-3.42,2.04v8.97c0,6.68,.34,7.57,4.17,7.95l1.98,.19c.41,.25,.27,1.4-.14,1.59-3.7-.13-6.02-.19-8.69-.19-2.94,0-5.27,.13-7.94,.19-.41-.19-.55-1.21-.14-1.59l1.16-.19c3.83-.64,3.97-1.27,3.97-7.95v-22.89c0-6.68-.48-7.76-4.04-8.01l-1.78-.13c-.41-.25-.27-1.4,.14-1.59,3.35,.06,5.68,.19,8.62,.19,2.67,0,5-.06,7.94-.19,.41,.19,.55,1.34,.14,1.59l-1.3,.13c-3.97,.38-4.11,1.33-4.11,8.01v7.31c0,1.97,.14,2.04,3.42,2.04h19.57c3.29,0,3.42-.06,3.42-2.04v-7.31c0-6.68-.14-7.63-4.17-8.01l-1.3-.13c-.41-.25-.28-1.4,.14-1.59,3.15,.13,5.47,.19,8.28,.19s5-.06,8.07-.19c.41,.19,.55,1.34,.14,1.59l-1.44,.13c-3.97,.38-4.1,1.33-4.1,8.01v22.89c0,6.68,.14,7.5,4.1,7.95l1.64,.19c.41,.25,.28,1.4-.14,1.59-3.29-.13-5.61-.19-8.28-.19-2.8,0-5.27,.06-8.28,.19-.41-.19-.55-1.21-.14-1.59l1.3-.19c4.17-.64,4.17-1.27,4.17-7.95v-8.97c0-1.91-.14-2.04-3.42-2.04h-19.57Z"/>
      <path class="cls-2" d="M111.09,357.05c5.62-4.38,12.79-6.52,20.8-6.52,4.16,0,10.02,.84,13.64,1.84,.92,.23,1.46,.38,2.16,.31,.08,1.77,.46,6.6,1.08,11.29-.38,.54-1.54,.61-2.08,.15-1.16-5.22-4.62-11.21-15.79-11.21-11.79,0-21.81,7.45-21.81,23.34s10.25,25.03,22.88,25.03c9.94,0,14.33-6.45,16.1-10.98,.54-.38,1.7-.23,2,.31-.54,3.99-2.54,9.06-3.7,10.52-.92,.15-1.85,.46-2.7,.76-1.7,.62-7.24,1.77-12.17,1.77-6.93,0-13.56-1.38-19.19-5.15-6.16-4.22-10.94-11.21-10.94-21.11,0-8.52,3.85-15.82,9.71-20.35Z"/>
      <path class="cls-2" d="M153.22,381.89c0-12.72,10.02-22.45,23.77-22.45,15.42,0,23.17,10.62,23.17,21.81,0,12.85-10.28,22.2-23.17,22.2-14.82,0-23.77-10.11-23.77-21.56Zm40.26,1.34c0-10.49-4.87-21.81-17.63-21.81-6.94,0-15.96,4.51-15.96,18.44,0,9.41,4.81,21.62,17.96,21.62,8.01,0,15.63-5.72,15.63-18.25Z"/>
      <path class="cls-2" d="M275.49,376.42c0-3.94-.13-11.26-1.28-13.16-.47-.76-1.68-1.21-3.37-1.34l-1.68-.13c-.4-.45-.27-1.27,.13-1.53,2.56,.13,5.06,.19,7.69,.19,2.83,0,4.65-.06,7.08-.19,.54,.32,.47,1.14,.13,1.53l-1.62,.13c-1.69,.13-2.97,.7-3.37,1.53-.94,2.1-.94,9.41-.94,12.97v7.19c0,5.53-.94,11.38-4.72,15.2-2.9,2.99-7.89,4.64-12.88,4.64-4.65,0-9.3-.83-12.6-3.5-3.57-2.8-5.26-7.44-5.26-15.01v-15.01c0-6.61-.14-7.69-4.04-8.01l-1.69-.13c-.4-.25-.27-1.33,.13-1.53,3.37,.13,5.66,.19,8.36,.19s4.99-.06,8.29-.19c.4,.19,.54,1.27,.13,1.53l-1.62,.13c-3.91,.32-4.04,1.4-4.04,8.01v13.74c0,10.24,3.37,16.98,13.68,16.98,9.77,0,13.48-7.25,13.48-16.92v-7.31Z"/>
      <path class="cls-2" d="M353.84,368.47c0-4.75-.3-5.97-3.65-6.23l-2.38-.23c-.27-.25-.42-1.53,.07-1.57,4.02-.3,9.09-.51,16.02-.51,4.69,0,9.16,.32,12.52,1.8,3.2,1.35,5.66,3.92,5.66,8.03,0,4.62-3.13,7-7.6,8.8,0,.64,.59,.83,1.41,.96,4.02,.64,9.98,3.85,9.98,10.72,0,7.45-6.41,12.46-19.82,12.46-2.16,0-5.81-.2-8.94-.2s-5.81,.13-8.57,.2c-.45-.2-.6-1.22-.15-1.6l1.34-.19c3.95-.58,4.1-1.29,4.1-8.03v-24.41Zm6.11,8.54c0,1.8,.07,1.93,3.87,1.8,7.6-.26,11.7-2.18,11.7-8.22s-5.44-8.67-11.1-8.67c-1.64,0-2.76,.13-3.43,.39-.74,.19-1.04,.51-1.04,1.67v13.04Zm0,14.9c0,2.31,.15,5.59,1.56,7,1.42,1.48,3.65,1.8,5.89,1.8,6.63,0,11.7-2.57,11.7-8.99,0-5.08-2.98-10.98-14.83-10.98-4.02,0-4.32,.38-4.32,1.67v9.51Z"/>
      <rect class="cls-3" x="143.89" y="419.77" width="270.65" height="3.2"/>
      <path class="cls-2" d="M232.43,341.49l-1.77-.15c-.36-.04-.67-.08-.98-.13-2.58-.46-3.62-2.76-4.83-4.89l-6.1-10.63c-1.05-1.77-2.19-4.16-4.6-4.5,6.26-.75,11.91-4.36,11.91-10.56,0-7.16-7.09-10.36-14.25-10.36-4.29,0-8.21,.12-12.58,.12-2.41,0-5.28-.12-7.69-.12-1.34,0-1.36,.27-1.36,1.02,0,1.11,.47,.8,1.89,.88,5.09,.29,4.9,1.24,4.9,5.6v27.87c0,3.99,.35,5.18-3.84,5.56,0,0-.64,.06-1.01,.1l-1.77,.18c-.42,.38-.28,1.4,.14,1.59,.94-.04,2.62-.1,2.62-.1,2.32-.07,4.64-.25,6.96-.25s4.56,.18,6.85,.25h0c.81,.03,1.67,.06,2.62,.09,.42-.19,.57-1.21,.14-1.59l-1.79-.17c-.36-.04-.99-.09-.99-.09-4.23-.29-3.97-1.48-3.97-5.57v-10.49c0-.62-.08-2.25,.38-2.73,.38-.41,1.06-.34,1.66-.34,5.73,0,5.65,.54,8.37,5.31l7.38,13.29c.6,1.02,1.06,2.32,2.56,2.32h6.41c.81,.03,1.66,.05,2.6,.09,.42-.19,.57-1.21,.14-1.59Zm-25.73-20.9c-1.28,0-3.84,.48-3.84-1.22v-12.2c0-4.77,.15-5.45,5.88-5.45,6.71,0,10.85,3.41,10.85,9.67,0,2.72-.98,5.25-3.47,6.95-2.86,1.98-5.95,2.25-9.42,2.25Z"/>
      <g>
        <path class="cls-2" d="M208.09,370.15c0-6.68-.14-7.69-4.55-8.01l-1.75-.13c-.42-.25-.28-1.4,.14-1.59,3.92,.13,6.3,.19,9.09,.19s5.11-.06,8.6-.19c.42,.19,.56,1.33,.14,1.59l-1.68,.13c-4.13,.32-4.27,1.34-4.27,8.01v22.13c0,4,.21,5.66,1.47,6.87,.77,.7,2.1,1.46,7.62,1.46,5.95,0,7.41-.25,8.54-.83,1.4-.76,3.22-3.05,4.62-6.3,.42-.32,1.75-.06,1.75,.38,0,.7-1.96,7.19-2.94,8.9-3.57-.13-10.21-.19-17.42-.19h-6.44c-2.94,0-5.18,.06-9.09,.19-.42-.19-.56-1.21-.14-1.59l2.1-.19c4.06-.38,4.2-1.27,4.2-7.95v-22.89Z"/>
        <path class="cls-2" d="M395.48,370.27c0-6.74-.14-7.82-4.19-8.14l-1.72-.13c-.41-.25-.28-1.4,.14-1.59,3.43,.13,5.77,.19,8.65,.19s5.08-.06,8.52-.19c.41,.19,.55,1.33,.14,1.59l-1.72,.13c-4.05,.32-4.19,1.4-4.19,8.14v22.64c0,6.74,.14,7.63,4.19,8.08l1.72,.19c.41,.25,.28,1.4-.14,1.59-3.43-.13-5.77-.19-8.52-.19-2.88,0-5.22,.06-8.65,.19-.41-.19-.55-1.21-.14-1.59l1.72-.19c4.05-.45,4.19-1.34,4.19-8.08v-22.64Z"/>
        <path class="cls-2" d="M340.6,400.97c-.35-.04-1.01-.09-1.01-.09-.73-.07-1.37-.17-1.89-.74-.89-.95-.82-3.64-.82-4.72v-27.87c0-1.22-.3-3.84,.59-4.79,.45-.5,1.37-.58,2.2-.63h0c.5-.04,.51-.04,.95-.06l1.76-.12c.42-.25,.28-1.4-.14-1.59-.94,.03-1.8,.02-2.61,.05h0s-7.5,0-7.5,0c-.82,0-1.56,0-2,.88l-15.29,31.84-13.51-30.76c-.45-1.08-.52-1.96-1.93-1.96h-7.81c-.81-.03-1.71-.02-2.65-.05-.42,.19-.57,1.34-.14,1.59l1.76,.12c.36,.03,1.02,.07,1.02,.07,2.93,.19,3.11,.84,2.84,3.93l-2.3,29.89c-.2,3-.37,4.59-3.51,4.88,0,0-.67,.08-1.03,.12l-1.76,.19c-.42,.38-.28,1.4,.14,1.59,.93-.03,2.58-.08,2.58-.08,1.59-.08,3.22-.22,4.84-.22,1.75,0,3.5,.16,5.26,.24h0c.81,.03,1.67,.05,2.62,.09,.42-.19,.57-1.21,.14-1.59l-1.77-.19c-.46-.04-.98-.09-.98-.09-4.54-.31-4.44-3.51-4.15-7.43l2.15-27.8h.52l14.62,34.21c.15,.47,.37,1.28,1.11,1.28,.67,0,.89-.74,1.11-1.22l16.48-35.08h.52v30.57c0,1.21,.15,3.71-1.11,4.66-.66,.49-2.8,.78-2.8,.78-.3,.05-.61,.09-.96,.13l-1.77,.19c-.42,.38-.28,1.4,.14,1.59,.93-.03,2.58-.09,2.58-.09,2.39-.06,4.82-.24,7.25-.24,1.75,0,5.17,.17,5.17,.17,.81,.02,1.74,.11,2.69,.15,.42-.19,.57-1.21,.14-1.59l-1.76-.19Z"/>
        <path class="cls-2" d="M455.29,401.15l-.24-.19c-.35-.04-.66-.08-.96-.13-2.75-.61-3.82-3.93-4.84-6.29l-14.15-33.5c-.14-.4-.42-1.27-.98-1.27-.77,0-.98,.94-1.19,1.47l-13.52,33.43c-.49,1.26-1.75,4.34-2.66,5.27-.7,.72-1.61,.85-2.58,.95,0,0-.76,.07-1.13,.11l-1.66,.17c-.42,.38-.28,1.4,.14,1.59,.94-.03,2.62-.09,2.62-.09,1.85-.03,3.7-.26,5.55-.26,1.56,0,3.11,.17,4.67,.23,0,0,1.67,.06,2.61,.09,.42-.19,.57-1.21,.14-1.59l-1.76-.19c-.35-.04-.96-.09-.96-.09-1.62-.18-3.65-.47-3.65-2.26,0-1.2,.56-2.6,.98-3.67l2.1-5c1.05-2.4,.63-2.67,3.43-2.67h9.53c3.36,0,2.87,0,4.34,3.41l2.24,5.07c.35,.87,.98,2.34,.98,3.27,0,1.68-1.83,1.79-3.54,1.93,0,0-.57,.05-1.06,.08l-1.7,.12c-.42,.38-.28,1.4,.14,1.59,.94-.03,2.62-.1,2.62-.1,1.99-.07,4-.23,5.92-.23,2.45,0,4.91,.17,7.36,.23h0c.8,.02,.12,.05,1.05,.09,.42-.19,.57-1.21,.14-1.59Zm-18.54-15.74h-8.26c-.29,0-2.58,.27-2.58-.41,0-.2,.14-.61,.21-.81l4.96-12.27c.14-.34,.65-2.02,1.22-2.02,.43,0,1.01,1.75,1.15,2.02l4.88,11.46c0,.13,.5,1.21,.5,1.48,0,.74-1.65,.54-2.08,.54Z"/>
      </g>
    </g>
    <path class="cls-2" d="M179.48,256.19c44.7,0,106.54,25.17,151.41,25.17,32.02,0,63.26-8.54,81.04-21.13,1.24-7.39,1.9-14.98,1.9-22.72,0-75.13-60.91-136.04-136.04-136.04s-136.04,60.91-136.04,136.04c0,7.65,.64,15.15,1.86,22.46,4.9-.91,21.57-3.79,35.87-3.79Z"/>
    <g>
      <polygon class="cls-3" points="365.68 206.06 371.06 208.29 382.98 199.97 365.68 206.06"/>
      <path class="cls-3" d="M165.25,196.77l-14.14-4.97,.71-1.73,15.92,5.31,.07-.04,2.1-1.19,.84-.53-17.36-7.39,.73-1.82,38.75,15.67,1.28-.53-38.44-18.73,.86-1.76,40.73,18.96,.56-.29-39.49-22.4,.81-1.68,57.03,31.03c.47-.86,1.44-2.44,1.95-3.28-21.68-20.39-42.61-35.69-42.61-35.69,0,0,21.52,14.41,48.07,27.81,.88-1.09,1.6-1.97,2.53-3.01l-48.65-42.83,1.31-1.34,39.27,33.47-36.38-36.43,1.36-1.41,40.84,39.47-38.02-42.2,1.45-1.31,35.14,37.63-32.07-40.41,1.38-1.26,41.11,50.03c1.06-.92,1.95-1.61,3.06-2.46-12.44-26.91-26.02-48.8-26.02-48.8,0,0,14.46,21.28,33.96,43.56,1.19-.67,2.4-1.31,3.63-1.92l-.21-.13-28.81-57.5,1.71-.75,23.87,45.74-20.08-47.41,1.79-.8,23.08,51.9-19.45-53.37,1.84-.67,18.49,48.05-14.6-49.49,1.75-.65,19.22,61.38-.04,.16,.05-.02c1.28-.43,2.58-.81,3.89-1.16-1.46-29.48-5.82-54.7-5.82-54.7,0,0,5.4,25,15.08,52.87,1.35-.17,2.71-.31,4.07-.4l-.04-.06h.17l-.1-.14-5.17-64.11,1.87-.06,5,51.35-.86-51.48,1.96-.07,1.96,56.77,1.96-56.77,1.96,.07-.86,51.48,5-51.35,1.87,.06-5.17,64.11-.1,.14h.03v.02s.07,0,.07,0c1.34,.08,2.67,.22,3.98,.38,9.67-27.84,15.06-52.8,15.06-52.8,0,0-4.35,25.14-5.82,54.57,1.32,.35,2.63,.73,3.91,1.15l19.15-61.16,1.75,.65-14.6,49.48,18.49-48.05,1.84,.67-19.45,53.37,23.08-51.9,1.79,.8-20.08,47.41,23.87-45.74,1.71,.75-28.71,57.3,.05,.02c1.18,.58,2.34,1.19,3.49,1.83,19.42-22.21,33.79-43.37,33.79-43.37,0,0-13.49,21.74-25.89,48.52,1.11,.84,2.19,1.7,3.24,2.6l40.63-49.49,1.39,1.26-32.08,40.41,35.14-37.63,1.45,1.31-38.02,42.2,40.84-39.47,1.36,1.41-36.38,36.43,39.27-33.47,1.3,1.34-48.06,42.35,.03,.03c.84,.94,1.65,1.9,2.44,2.88,26.39-13.34,47.71-27.62,47.71-27.62,0,0-20.72,15.16-42.29,35.4,.59,.99,1.55,2.67,2.09,3.69l56.22-30.61,.81,1.69-44.88,25.45,46.68-21.72,.86,1.76-43.48,21.19,.83,.29,44.24-17.89,.74,1.82-41.12,17.49,.77,.32,27.4-9.13,4.13-2.88,1.37,1.05,9.02-3.01,.71,1.73-7.8,2.75,11.27,8.6,3.61,2.01c-14.49-60.58-68.98-105.62-134-105.62s-121.42,46.63-134.73,108.82c.17-.08,.34-.16,.51-.24l1.65-.75,1.01-.47,19.01-10.66Z"/>
    </g>
    <path class="cls-1" d="M142.29,262.92s20.32-4.06,37.29-4.06c44.7,0,106.54,25.17,151.41,25.17,32.92,0,65.02-9.03,82.51-22.19,1.37-7.79,2.08-15.8,2.08-23.98,0-11.08-1.32-21.85-3.79-32.17l-18.71-10.43-21.95,15.39-14.76-5.75c-5,2.53-35.83,23.15-35.83,23.15l-11.84-8.57-12.7-2.51-16.93-12.33-19.42,13.33s-21.67,12.58-22.41,12.58-26.14-20.13-26.14-20.13l-11.7-12.33c-1.99,1.26-9.95,4.91-9.95,4.91l-.41,.11-7.7-2.38-9.35-4.96-28.41,12.88c-.17,.08-.34,.16-.51,.24-2,9.34-3.06,19.03-3.06,28.96,0,8.56,.79,16.93,2.28,25.06Z"/>
  </g>
  <rect class="cls-4" width="554.31" height="523.05"/>
</svg>